<svg width="512" height="512" viewBox="0 0 512 512" fill="none" xmlns="http://www.w3.org/2000/svg">
<g clip-path="url(#clip0)">
<path d="M252.972 10.008C188.78 10.798 127.437 36.649 82.042 82.045C36.649 127.439 10.797 188.78 10.006 252.971C9.81101 258.949 15.358 261.671 19.904 262.895C23.023 263.737 25.675 263.875 25.675 263.875C86.052 261.999 145.868 238.036 191.952 191.952C238.036 145.869 262 86.051 263.873 25.677C263.873 25.677 263.736 23.024 262.895 19.903C261.672 15.359 258.949 9.81299 252.972 10.008Z" fill="#118AB2"/>
<path d="M263.875 25.678C262.002 86.053 238.038 145.87 191.954 191.953C145.871 238.037 86.053 262 25.677 263.876C25.677 263.876 23.025 263.738 19.906 262.893C20.312 276.853 21.959 290.748 24.818 304.42C27.832 303.746 30.509 303.726 30.509 303.726C41.873 303.233 53.211 302.064 64.46 300.223C121.498 290.885 176.249 264.229 220.239 220.238C272.904 167.575 300.724 99.483 303.726 30.509C303.726 30.509 303.746 27.834 304.424 24.822C290.753 21.962 276.858 20.318 262.896 19.902C263.738 23.025 263.875 25.678 263.875 25.678Z" fill="#E6E6E6"/>
<path d="M303.726 30.51C300.724 99.483 272.905 167.575 220.239 220.239C176.249 264.229 121.498 290.884 64.46 300.224C53.211 302.065 41.873 303.235 30.509 303.727C30.509 303.727 27.831 303.747 24.818 304.421C20.406 305.407 15.275 307.796 16.785 313.574L16.819 313.566C27.423 357.631 49.995 397.908 82.044 429.957C114.094 462.005 154.372 484.577 198.438 495.182L198.428 495.217C204.207 496.727 206.594 491.598 207.58 487.183C208.254 484.17 208.274 481.493 208.274 481.493C211.277 412.52 239.096 344.428 291.761 291.764C335.749 247.774 390.501 221.119 447.541 211.78C458.791 209.937 470.127 208.769 481.491 208.277C481.491 208.277 484.166 208.257 487.177 207.583C491.592 206.596 496.728 204.21 495.216 198.43L495.191 198.406C484.586 154.341 462.014 114.062 429.966 82.015C397.917 49.966 357.638 27.394 313.573 16.788C307.793 15.276 305.404 20.411 304.419 24.826C303.746 27.835 303.726 30.51 303.726 30.51Z" fill="#EB6182"/>
<path d="M447.538 211.779C390.502 221.117 335.75 247.774 291.761 291.763C239.097 344.426 211.277 412.518 208.274 481.492C208.274 481.492 208.253 484.169 207.58 487.182C221.249 490.043 235.147 491.688 249.107 492.096C248.259 488.977 248.126 486.324 248.126 486.324C250 425.947 273.964 366.13 320.047 320.049C366.128 273.964 425.945 250.002 486.324 248.126C486.324 248.126 488.974 248.263 492.094 249.109C491.681 235.145 490.039 221.247 487.176 207.583C484.165 208.256 481.49 208.277 481.49 208.277C470.127 208.767 458.79 209.936 447.538 211.779Z" fill="#E6E6E6"/>
<path d="M486.324 248.125C425.944 250.001 366.128 273.962 320.047 320.048C273.964 366.131 250 425.947 248.126 486.324C248.126 486.324 248.26 488.977 249.105 492.098C250.33 496.643 253.051 502.189 259.027 501.994L259.037 501.96C323.23 501.171 384.57 475.317 429.966 429.923C475.352 384.538 501.2 323.21 501.992 259.029C502.187 253.053 496.641 250.331 492.096 249.106C488.975 248.261 486.324 248.125 486.324 248.125Z" fill="#118AB2"/>
<path d="M511.997 258.755C512.024 251.136 507.755 245.68 501.802 242.293C501.26 232.647 500.146 223.017 498.484 213.516C499.882 212.532 501.175 211.348 502.271 209.918C505.293 205.975 506.222 200.997 504.891 195.9C504.856 195.767 504.818 195.634 504.779 195.503C493.679 149.847 470.263 108.168 437.038 74.942C403.694 41.597 361.838 18.133 315.995 7.08299C314.52 6.70699 313.045 6.51599 311.606 6.51599C305.723 6.51599 301.387 9.30099 298.457 13.512C288.953 11.851 279.323 10.738 269.682 10.196C266.222 4.13299 260.617 -0.203011 252.766 0.00998859C219.551 0.428989 187.187 7.18299 156.576 20.084C125.937 32.997 98.481 51.464 74.972 74.974C51.463 98.483 32.995 125.937 20.083 156.576C7.18201 187.186 0.427008 219.549 0.00700804 252.763C-0.203992 260.634 4.11601 266.248 10.195 269.706C10.733 279.339 11.847 288.971 13.511 298.487C12.115 299.471 10.823 300.654 9.72801 302.084C6.70701 306.027 5.77501 311.005 7.10701 316.102C7.16401 316.32 7.22801 316.534 7.29801 316.745C18.42 362.289 41.809 403.867 74.971 437.029C108.132 470.19 149.706 493.578 195.251 504.7C195.464 504.771 195.679 504.835 195.896 504.892C197.406 505.286 198.917 505.486 200.39 505.486C200.392 505.486 200.391 505.486 200.392 505.486C206.273 505.486 210.608 502.702 213.539 498.492C223.053 500.156 232.685 501.268 242.321 501.806C245.704 507.726 251.138 511.996 258.718 511.998C258.721 511.998 258.723 511.998 258.725 511.998C258.932 511.998 259.138 511.995 259.349 511.988C259.563 511.981 259.775 511.967 259.986 511.947C292.94 511.437 325.048 504.688 355.431 491.882C386.068 478.969 413.524 460.502 437.035 436.993C460.544 413.484 479.012 386.029 491.923 355.391C504.835 324.754 511.589 292.363 511.997 259.118C512.001 258.997 512.001 258.877 511.997 258.755ZM238.323 481.493C231.662 480.97 225.013 480.152 218.424 479.043C222.094 410.996 250.569 347.097 298.834 298.834C347.094 250.57 410.994 222.095 479.039 218.425C480.147 225.008 480.965 231.656 481.488 238.323C417.828 241.413 358.136 267.81 312.974 312.976C267.806 358.143 241.411 417.835 238.323 481.493ZM32.957 293.576C31.85 286.985 31.031 280.337 30.508 273.677C94.166 270.589 153.86 244.192 199.028 199.024C244.194 153.857 270.592 94.166 273.679 30.509C280.345 31.034 286.993 31.853 293.579 32.961C289.908 101.007 261.433 164.905 213.169 213.166C164.903 261.432 101.001 289.907 32.957 293.576ZM89.115 89.116C132.734 45.494 190.664 20.974 252.317 20.019C252.645 20.621 252.977 21.543 253.253 22.565C253.259 22.587 253.265 22.609 253.272 22.63C253.552 23.686 253.773 24.845 253.864 25.872C251.873 85.924 227.387 142.379 184.884 184.882C142.372 227.393 85.913 251.88 25.848 253.865C24.936 253.787 23.826 253.584 22.78 253.314C22.653 253.276 22.524 253.241 22.395 253.208C21.457 252.947 20.594 252.639 20.018 252.322C20.973 190.669 45.494 132.736 89.115 89.116ZM89.115 422.886C59.059 392.831 37.713 355.278 27.257 314.123C28.328 313.902 29.567 313.745 30.584 313.726C30.704 313.725 30.823 313.722 30.943 313.717C39.699 313.336 48.391 312.558 57.004 311.421C63.795 335.875 74.897 358.605 90.099 379.095C92.061 381.74 95.079 383.137 98.138 383.137C100.208 383.137 102.298 382.496 104.088 381.167C108.524 377.877 109.451 371.613 106.16 367.177C92.855 349.245 83.025 329.414 76.847 308.107C133.543 296.655 185.815 268.803 227.309 227.31C279.801 174.82 310.489 105.083 313.716 30.945C313.721 30.824 313.723 30.755 313.725 30.635C313.744 29.579 313.905 28.311 314.129 27.225C355.287 37.682 392.838 59.029 422.892 89.084C452.952 119.143 474.301 156.706 484.756 197.875C483.682 198.097 482.436 198.256 481.412 198.275C481.293 198.276 481.173 198.279 481.053 198.284C472.297 198.665 463.605 199.443 454.993 200.58C448.204 176.128 437.101 153.397 421.897 132.905C418.605 128.47 412.343 127.543 407.907 130.833C403.471 134.124 402.544 140.388 405.835 144.824C419.143 162.758 428.972 182.589 435.149 203.894C378.451 215.345 326.179 243.197 284.689 284.691C232.197 337.181 201.509 406.919 198.281 481.056C198.277 481.176 198.274 481.245 198.273 481.366C198.253 482.411 198.095 483.664 197.875 484.741C156.719 474.286 119.17 452.94 89.115 422.886ZM422.894 422.85C379.265 466.477 321.323 490.999 259.664 491.949C259.342 491.347 259.018 490.44 258.748 489.437C258.74 489.411 258.732 489.384 258.726 489.358C258.447 488.305 258.229 487.153 258.137 486.13C260.129 426.076 284.615 369.622 327.119 327.119C369.615 284.618 426.064 260.133 486.118 258.137C488.204 258.327 490.764 259.016 491.989 259.686C491.023 321.322 466.503 379.241 422.894 422.85Z" fill="white" fill-opacity="0.69"/>
<path d="M123.701 387.563C119.797 383.658 113.465 383.658 109.557 387.563C105.653 391.468 105.653 397.8 109.557 401.707L109.983 402.131C111.93 404.048 114.463 405.004 116.997 405.004C119.583 405.004 122.167 404.007 124.124 402.019C127.999 398.083 127.948 391.751 124.013 387.876L123.701 387.563Z" fill="#000001"/>
<path d="M388.242 124.383C390.199 126.372 392.783 127.368 395.369 127.368C397.902 127.368 400.436 126.412 402.384 124.495C406.32 120.621 406.37 114.289 402.496 110.352L402.131 109.985C398.258 106.049 391.926 105.998 387.988 109.871C384.052 113.745 384.001 120.076 387.874 124.014L388.242 124.383Z" fill="#000001"/>
</g>
<defs>
<clipPath id="clip0">
<rect width="512.001" height="512.001" fill="white"/>
</clipPath>
</defs>
</svg>
